<svg xmlns="http://www.w3.org/2000/svg" width="134.104" height="166.999" viewBox="0 0 134.104 166.999"><g transform="translate(-50.426)"><path d="M179.293,18.885a87.2,87.2,0,0,0-8.3-17.766,2.446,2.446,0,0,0-2.382-1.1,87.166,87.166,0,0,0-18.9,5.239C136.3,10.65,126.85,18.629,122.38,28.333c-7.454,16.186-15.237,48.8-17.351,72.7a2.447,2.447,0,0,0,1.414,2.437l26.35,12.135a2.446,2.446,0,0,0,2.771-.511c16.788-17.142,36.51-44.257,43.965-60.443C184,44.947,183.916,32.579,179.293,18.885Z" transform="translate(-36.787 0)" fill="#ebeef2"/><path d="M224.778,18.885a87.2,87.2,0,0,0-8.3-17.766,2.446,2.446,0,0,0-2.382-1.1c-.088.012-.671.093-1.644.266a81.93,81.93,0,0,1,5.606,15.6c3.256,13.086,2.624,25.136-1.826,34.849-7.423,16.2-26.17,43.749-41.79,61.411a2.326,2.326,0,0,1-1.567.815,1.885,1.885,0,0,1-.351-.013l5.756,2.65a2.446,2.446,0,0,0,2.771-.511c16.788-17.142,36.51-44.257,43.965-60.443C229.482,44.947,229.4,32.579,224.778,18.885Z" transform="translate(-82.272 0)" fill="#d1d6de"/><path d="M219.747.022a87.166,87.166,0,0,0-18.9,5.239c-8.209,3.3-14.931,7.569-19.938,12.61l52.957,23.578a59.376,59.376,0,0,0-3.437-22.564,87.189,87.189,0,0,0-8.3-17.766A2.446,2.446,0,0,0,219.747.022Z" transform="translate(-87.925 0)" fill="#5c9cee"/><path d="M294.936.288a81.931,81.931,0,0,1,5.606,15.6,61.619,61.619,0,0,1,1.718,21.8l8.442,3.758c.82-12.988-4.97-29.843-11.74-40.33a2.446,2.446,0,0,0-2.382-1.1l-.056.008C296.34.055,295.787.136,294.936.288Z" transform="translate(-164.758)" fill="#3580d3"/><circle cx="9.45" cy="9.45" r="9.45" transform="translate(101.951 38.043)" fill="#8088a0"/><path d="M147.2,273a7.584,7.584,0,0,0-14-.545,2.471,2.471,0,0,0-.123.327l-7.439,25.036h0a3.855,3.855,0,0,0,2.1,4.633,3.911,3.911,0,0,0,1.64.363,3.855,3.855,0,0,0,3.244-1.78L146.809,279.1a2.461,2.461,0,0,0,.168-.306A7.534,7.534,0,0,0,147.2,273Z" transform="translate(-50.569 -180.611)" fill="#ed5575"/><path d="M349.86,115.782a14.978,14.978,0,0,0-18.89,9.584l-2.112,6.46a14.978,14.978,0,1,0,28.474,9.307l2.111-6.46A15,15,0,0,0,349.86,115.782Z" transform="translate(-187.116 -77.513)" fill="#f9c295"/><path d="M375.167,95.7a2.443,2.443,0,0,0-2.311-.773l-9.485,1.908a.723.723,0,0,1-.367-.022l-9.268-3.029a12.486,12.486,0,0,0-15.73,7.98l-3.626,11.1a2.446,2.446,0,0,0,1.565,3.085l7.394,2.417a2.446,2.446,0,0,0,3.085-1.566l.129-.395a3.011,3.011,0,0,1,3.794-1.925l4.484,1.466a14.269,14.269,0,0,0,17.975-9.119l2.856-8.738A2.449,2.449,0,0,0,375.167,95.7Z" transform="translate(-191.256 -62.778)" fill="#444966"/><path d="M273.536,217.576a12.863,12.863,0,0,0-17.97,2.682l-17.748,23.969a2.446,2.446,0,0,0,.7,3.549l17.883,10.81a2.445,2.445,0,0,0,3.231-.638l16.586-22.4a12.764,12.764,0,0,0,2.522-7.636A12.907,12.907,0,0,0,273.536,217.576Z" transform="translate(-125.947 -144.914)" fill="#9fd479"/><g transform="translate(91.618 71.167)"><path d="M273.58,220.473a12.843,12.843,0,0,0-1.8-1.114A12.91,12.91,0,0,1,274.3,227a12.766,12.766,0,0,1-2.522,7.636l-16.586,22.4a2.446,2.446,0,0,1-3.231.638l-14.56-8.8c.007.059.014.118.025.176a2.446,2.446,0,0,0,1.134,1.62l17.883,10.81a2.446,2.446,0,0,0,3.231-.638l16.586-22.4a12.764,12.764,0,0,0,2.522-7.636A12.907,12.907,0,0,0,273.58,220.473Z" transform="translate(-217.609 -218.977)" fill="#7db24f"/><path d="M229.273,225.315a7.48,7.48,0,0,0-5.067-2.709l-39.2-4.378-.035,0a7.529,7.529,0,0,0-1.477,14.986l39.2,4.378.035,0q.373.036.742.036a7.53,7.53,0,0,0,5.8-12.314Z" transform="translate(-176.716 -218.189)" fill="#7db24f"/></g><g transform="translate(50.426 128.438)"><path d="M77.181,484.773H52.872a2.446,2.446,0,1,1,0-4.893H77.181a2.446,2.446,0,1,1,0,4.893Z" transform="translate(-50.426 -451.795)" fill="#dce0e5"/><path d="M92.11,441.721H75.028a2.446,2.446,0,0,1,0-4.893H92.11a2.446,2.446,0,0,1,0,4.893Z" transform="translate(-65.355 -422.785)" fill="#dce0e5"/><path d="M112.468,398.668H105.24a2.446,2.446,0,1,1,0-4.893h7.228a2.446,2.446,0,1,1,0,4.893Z" transform="translate(-85.713 -393.775)" fill="#dce0e5"/></g><path d="M191.49,219.7a2.446,2.446,0,0,0-1.658-.927l-4.823-.539-.035,0a7.529,7.529,0,0,0-1.477,14.986l4.419.493a2.444,2.444,0,0,0,2.7-2.1l1.373-10.074A2.446,2.446,0,0,0,191.49,219.7Z" transform="translate(-85.097 -147.023)" fill="#f9c295"/><path d="M192.791,332.193a2.447,2.447,0,0,0-.967-1.624l-16.719-12.377a2.446,2.446,0,0,0-3.612.814L145.33,365.92a2.446,2.446,0,0,0,.862,3.28l11.214,6.842a2.445,2.445,0,0,0,3.217-.6l31.688-41.418A2.448,2.448,0,0,0,192.791,332.193Z" transform="translate(-63.74 -214.084)" fill="#2e344c"/><path d="M263.826,322.966,228.813,301.8a2.447,2.447,0,0,0-3.231.638l-3.928,5.3a2.411,2.411,0,0,0-.209.337l-.758,1.36a11.827,11.827,0,0,0,4.122,15.852l22.544,13.922-6.732,24.115a2.446,2.446,0,0,0,1.669,3.005l12.61,3.692a2.446,2.446,0,0,0,3.042-1.686l9.874-35.125A9.022,9.022,0,0,0,263.826,322.966Z" transform="translate(-113.709 -203.123)" fill="#656d88"/></g></svg>