<svg xmlns="http://www.w3.org/2000/svg" width="104.224" height="136.827" viewBox="0 0 104.224 136.827"><g transform="translate(-61)"><path d="M151,345.073v44.61l16.034-5.346,8.017-10.519V351.095l-8.017-6.022Z" transform="translate(-65.948 -252.855)" fill="#ff435b"/><path d="M295.052,345.073H279.017L271,349.74V375l8.017,9.333,16.034,5.346Z" transform="translate(-153.879 -252.856)" fill="#cd0000"/><path d="M223.026,345.073H211v39.263l12.026-4.01,12.026,4.01V345.073Z" transform="translate(-109.914 -252.856)" fill="#ff7b4a"/><path d="M268.026,345.073H256v35.254l12.026,4.01Z" transform="translate(-142.888 -252.856)" fill="#ff435b"/><path d="M113.112,0a52.112,52.112,0,1,0,52.112,52.112A52.213,52.213,0,0,0,113.112,0Z" transform="translate(0)" fill="#ffe274"/><path d="M308.112,52.112A52.213,52.213,0,0,1,256,104.224V0A52.213,52.213,0,0,1,308.112,52.112Z" transform="translate(-142.888)" fill="#ffb62a"/><path d="M157.077,60a36.077,36.077,0,1,0,36.077,36.077A36.132,36.132,0,0,0,157.077,60Z" transform="translate(-43.966 -43.966)" fill="#ffb62a"/><path d="M292.077,96.077A36.132,36.132,0,0,1,256,132.155V60A36.132,36.132,0,0,1,292.077,96.077Z" transform="translate(-142.888 -43.966)" fill="#ff9100"/><path d="M214.523,118.717l-16.435-2.485L190.712,101.4l-7.376,14.832L166.9,118.717l11.865,11.625-2.726,16.275L190.712,139l14.672,7.616-2.726-16.275Z" transform="translate(-77.6 -74.302)" fill="#ffe274"/><path d="M267.946,130.342l2.726,16.275L256,139V101.4l7.376,14.832,16.435,2.485Z" transform="translate(-142.888 -74.302)" fill="#ffb62a"/></g></svg>