<svg xmlns="http://www.w3.org/2000/svg" width="161" height="157.197" viewBox="0 0 161 157.197"><g transform="translate(-0.001)"><path d="M104.5,194.8a2.459,2.459,0,1,1,.14,0l-.07,0Zm-9.77-.366a2.519,2.519,0,0,1-.287-.016h-.006a2.43,2.43,0,0,1,.5-4.834l.075.007a2.43,2.43,0,0,1-.28,4.843Zm19.518-.749a2.43,2.43,0,0,1-.467-4.814l.045-.009a2.43,2.43,0,0,1,.913,4.773l-.018,0A2.494,2.494,0,0,1,114.253,193.685Zm-29.158-1.1a2.47,2.47,0,0,1-.641-.086l-.014,0a2.43,2.43,0,0,1,1.243-4.7l.05.014a2.43,2.43,0,0,1-.639,4.775Zm38.626-1.494a2.43,2.43,0,0,1-.832-4.713l.041-.014a2.43,2.43,0,1,1,1.642,4.573l-.021.007A2.436,2.436,0,0,1,123.721,191.089Zm-47.881-1.82a2.4,2.4,0,0,1-.991-.215l-.033-.015a2.414,2.414,0,1,1,1.024.23Zm56.83-2.2a2.456,2.456,0,1,1,1.2-.317l-.055.031A2.422,2.422,0,0,1,132.671,187.074Zm22.067-21.719.016.011-.257-.183ZM42.581,154.764a2.433,2.433,0,0,1-2.253-1.516l-.006-.017a2.429,2.429,0,1,1,4.491-1.855l.017.043a2.431,2.431,0,0,1-2.249,3.345Zm120.6-4.663a2.447,2.447,0,1,1,2.335-1.758l-.031.1A2.43,2.43,0,0,1,163.184,150.1ZM39.609,145.41a2.431,2.431,0,0,1-2.362-1.866l-.007-.032a2.43,2.43,0,1,1,4.727-1.129l.007.032a2.433,2.433,0,0,1-2.365,2.995Zm125.809-4.865a2.4,2.4,0,0,1-.425-.038,2.444,2.444,0,1,1,2.831-2.071l-.016.1A2.431,2.431,0,0,1,165.418,140.544ZM38.11,135.706a2.427,2.427,0,0,1-2.417-2.215l-.007-.1a2.43,2.43,0,1,1,2.636,2.307C38.25,135.7,38.18,135.706,38.11,135.706Zm128.053-4.948a2.429,2.429,0,0,1-2.43-2.43v-.178a2.43,2.43,0,1,1,4.859,0v.032c0,.017,0,.034,0,.05s0,.042,0,.064v.032A2.429,2.429,0,0,1,166.163,130.758ZM38.1,125.9c-.07,0-.141,0-.213-.01a2.445,2.445,0,1,1,2.638-2.311l-.009.1A2.429,2.429,0,0,1,38.1,125.9Zm127.3-5.068a2.429,2.429,0,0,1-2.389-2.008l-.017-.1a2.43,2.43,0,1,1,2.831,2.071A2.386,2.386,0,0,1,165.4,120.828Zm.408-2.523-.41.06ZM39.578,116.2a2.448,2.448,0,1,1,2.383-1.965l-.022.1A2.429,2.429,0,0,1,39.578,116.2Zm123.593-4.908a2.45,2.45,0,0,1-2.317-1.674l-.027-.085a2.43,2.43,0,0,1,4.644-1.429v0a2.417,2.417,0,0,1-1.542,3.06A2.37,2.37,0,0,1,163.17,111.287Zm-120.647-4.46a2.431,2.431,0,0,1-2.25-3.345l.012-.029a2.429,2.429,0,1,1,4.5,1.828l-.012.031A2.43,2.43,0,0,1,42.523,106.827Zm116.962-4.641a2.445,2.445,0,0,1-2.172-1.323l-.037-.071a2.43,2.43,0,0,1,4.362-2.145v0a2.429,2.429,0,0,1-2.155,3.534ZM46.874,98.024a2.45,2.45,0,1,1,2.134-1.26c-.018.032-.038.064-.058.1A2.426,2.426,0,0,1,46.874,98.024Zm107.567-4.267a2.445,2.445,0,1,1,1.957-3.868l.052.074a2.429,2.429,0,0,1-2.008,3.794ZM52.519,89.992a2.43,2.43,0,0,1-1.868-3.982l.021-.025a2.43,2.43,0,1,1,3.739,3.1l-.021.025A2.422,2.422,0,0,1,52.519,89.992ZM148.181,86.2a2.438,2.438,0,1,1,1.712-4.153l.041.041a2.43,2.43,0,0,1-1.753,4.112ZM59.319,82.912a2.429,2.429,0,0,1-1.612-4.249l.01-.009a2.43,2.43,0,0,1,3.25,3.613l-.039.036A2.423,2.423,0,0,1,59.319,82.912Zm81.525-3.237a2.419,2.419,0,0,1-1.433-.469l-.082-.063a2.43,2.43,0,1,1,1.516.532Zm.219-2.761-.243.312Zm-73.951.033A2.454,2.454,0,1,1,68.5,76.51l-.085.056A2.416,2.416,0,0,1,67.112,76.947ZM132.6,74.342a2.41,2.41,0,0,1-1.135-.284l-.058-.032a2.429,2.429,0,1,1,2.341-4.257l.007,0a2.432,2.432,0,0,1-1.156,4.569Zm-56.874-2.1a2.43,2.43,0,0,1-1-4.643l.057-.025a2.43,2.43,0,1,1,.948,4.668Zm0,0" transform="translate(-24.454 -46.184)" fill="#a7c7d3"/><path d="M220.542,234.931,183.961,198.35a5.857,5.857,0,1,1,8.284-8.283l-9.42-9.42a5.853,5.853,0,0,1,7.726-8.767l-3.584-3.584a5.857,5.857,0,0,1-1.721-4.149,5.49,5.49,0,0,1,.079-.952,5.859,5.859,0,0,1,9.927-3.185l4.105,4.105a5.859,5.859,0,0,1-1.645-5.08,5.8,5.8,0,0,1,1.639-3.21,5.863,5.863,0,0,1,8.29.007l23.773,23.773.066-.095a10.712,10.712,0,0,1,15.163.012l11.085,11.085a11.371,11.371,0,0,1,3.331,8.026l.006,6.935a12.24,12.24,0,0,0,3.588,8.645l2.471,2.471-28.273,28.273-3.159-3.159a12.247,12.247,0,0,0-7.856-3.56A11.366,11.366,0,0,1,220.542,234.931Zm0,0" transform="translate(-124.155 -105.651)" fill="#fecbaa"/><path d="M357.175,377.159l32.092-32.092a2.707,2.707,0,0,1,3.829,0L404.524,356.5a2.707,2.707,0,0,1,0,3.829l-32.09,32.092a2.707,2.707,0,0,1-3.829,0l-11.43-11.428A2.709,2.709,0,0,1,357.175,377.159Zm0,0" transform="translate(-244.316 -236.016)" fill="#fdd559"/><path d="M462.12,383.574a2.425,2.425,0,1,0,0-3.433A2.427,2.427,0,0,0,462.12,383.574Zm0,0" transform="translate(-316.315 -260.118)" fill="#ff8812"/><path d="M349.279,237.554l-8.186-8.184.066-.095A10.654,10.654,0,0,1,345.3,226.7l7.415,7.415a2.429,2.429,0,1,1-3.436,3.436Zm0,0" transform="translate(-233.835 -155.415)" fill="#ffae85"/><path d="M103.926,234.94l36.581-36.581a5.858,5.858,0,1,0-8.284-8.284l9.42-9.419a5.853,5.853,0,0,0-7.726-8.767L137.5,168.3a5.852,5.852,0,0,0,1.721-4.148,5.5,5.5,0,0,0-.079-.953,5.859,5.859,0,0,0-9.927-3.184l-4.105,4.105a5.858,5.858,0,1,0-8.284-8.284L93.054,179.613l-.066-.093a10.713,10.713,0,0,0-15.163.011L66.741,190.617a11.371,11.371,0,0,0-3.331,8.026l-.007,6.934a12.234,12.234,0,0,1-3.587,8.646l-2.471,2.471,28.273,28.273,3.159-3.159a12.247,12.247,0,0,1,7.856-3.56A11.366,11.366,0,0,0,103.926,234.94Zm0,0" transform="translate(-39.311 -105.656)" fill="#fecbaa"/><path d="M48.143,377.17l-32.092-32.09a2.707,2.707,0,0,0-3.829,0L.794,356.508a2.707,2.707,0,0,0,0,3.829l32.09,32.092a2.708,2.708,0,0,0,3.83,0L48.143,381A2.708,2.708,0,0,0,48.143,377.17Zm0,0" transform="translate(0 -236.024)" fill="#ff84a7"/><path d="M109.234,453.513a2.425,2.425,0,1,0-3.433,0A2.427,2.427,0,0,0,109.234,453.513Zm0,0" transform="translate(-72.045 -308.063)" fill="#ef6085"/><path d="M135.836,237.566l8.184-8.186-.066-.093a10.655,10.655,0,0,0-4.14-2.572l-7.415,7.414a2.43,2.43,0,0,0,3.437,3.437Zm0,0" transform="translate(-90.277 -155.423)" fill="#ffae85"/><path d="M204.749,88.654v51.734a5.857,5.857,0,1,1-11.715,0v13.321a5.847,5.847,0,0,1-1.714,4.146,5.848,5.848,0,0,1-7.536.636,5.854,5.854,0,0,1-2.412-4.047v5.071a5.856,5.856,0,0,1-1.717,4.149,5.545,5.545,0,0,1-.728.619,5.86,5.86,0,0,1-9.273-4.768v-5.805a5.857,5.857,0,1,1-11.715,0V120.088l-.113.02a10.712,10.712,0,0,1-10.714-10.73V93.7a11.377,11.377,0,0,1,3.32-8.031l4.9-4.907a12.238,12.238,0,0,0,3.577-8.65v-3.5h39.982v4.467a12.251,12.251,0,0,0,3.039,8.073A11.367,11.367,0,0,1,204.749,88.654Zm0,0" transform="translate(-100.852 -47.04)" fill="#fedfc5"/><path d="M197.072,190.069a5.864,5.864,0,0,0-8.291.007l9.42-9.42a5.853,5.853,0,0,0-7.726-8.767l3.586-3.586a5.856,5.856,0,0,0,1.72-4.148,5.517,5.517,0,0,0-.077-.953,5.86,5.86,0,0,0-9.929-3.184l-4.105,4.105a5.858,5.858,0,1,0-8.284-8.284l-23.773,23.773-.066-.093a10.655,10.655,0,0,0-4.139-2.572,10.768,10.768,0,0,0-5.562-.344,15.692,15.692,0,0,0,8.254,6.242v29.479a10.727,10.727,0,0,0,12.809,10.522,10.749,10.749,0,0,0,6.214,5.455l29.943-29.943A5.859,5.859,0,0,0,197.072,190.069Zm0,0" transform="translate(-95.869 -105.656)" fill="#ffae85"/><path d="M232.9,199v-20.69a10.871,10.871,0,0,0-1.431,1.2l-.066.095-23.773-23.773a5.863,5.863,0,0,0-8.29-.007,5.8,5.8,0,0,0-1.639,3.21,5.859,5.859,0,0,0,1.645,5.08l-4.105-4.105a5.855,5.855,0,0,0-9.929,3.185,5.609,5.609,0,0,0-.077.952,5.857,5.857,0,0,0,1.721,4.149l3.584,3.584a5.848,5.848,0,0,0-9.371,3.686,5.741,5.741,0,0,0-.075.937,5.839,5.839,0,0,0,1.72,4.143l9.42,9.42a5.858,5.858,0,1,0-8.284,8.284l24.507,24.505a10.76,10.76,0,0,0,2.013.189,10.623,10.623,0,0,0,6.271-2.029,10.829,10.829,0,0,0,1.309-1.114,10.651,10.651,0,0,0,3.137-7.583v-2.641c.329.031.663.045,1,.045A10.733,10.733,0,0,0,232.9,199Zm0,0" transform="translate(-124.15 -105.651)" fill="#ffae85"/><path d="M204.749,88.654v51.734a5.859,5.859,0,0,1-5.857,5.867c-.087,0-.182,0-.275-.006a5.8,5.8,0,0,1-3.146-1.1s0,0-.007,0a5.855,5.855,0,0,1-2.43-4.755v13.321a5.847,5.847,0,0,1-1.714,4.146,5.848,5.848,0,0,1-7.536.636,5.854,5.854,0,0,1-2.412-4.047v5.071a5.856,5.856,0,0,1-1.717,4.149,5.545,5.545,0,0,1-.728.619,5.86,5.86,0,0,1-9.273-4.768v-5.805a5.857,5.857,0,1,1-11.715,0V120.088l-.113.02a10.712,10.712,0,0,1-10.714-10.73V93.7a11.377,11.377,0,0,1,3.32-8.031l4.9-4.907a12.274,12.274,0,0,0,3.577-8.65v-3.5h39.982v4.467a11.1,11.1,0,0,0,.386,3.022,12.181,12.181,0,0,0,2.653,5.051A11.457,11.457,0,0,1,204.749,88.654Zm0,0" transform="translate(-100.852 -47.04)" fill="#fedfc5"/><path d="M229.271,88.654v51.734a5.858,5.858,0,0,1-5.857,5.867c-.087,0-.182,0-.275-.006a5.8,5.8,0,0,1-3.146-1.1l.1-49.851a7.623,7.623,0,0,0-.194-1.383,22.533,22.533,0,0,0-22.541-18.184H182.883a12.191,12.191,0,0,0,.548-3.615v-3.5h39.982v4.467a11.1,11.1,0,0,0,.386,3.022,12.182,12.182,0,0,0,2.653,5.051A11.457,11.457,0,0,1,229.271,88.654Zm0,0" transform="translate(-125.374 -47.04)" fill="#fecbaa"/><path d="M215.193,21.578H169.809a2.708,2.708,0,0,1-2.707-2.707V2.707A2.708,2.708,0,0,1,169.809,0h45.385A2.708,2.708,0,0,1,217.9,2.707V18.871A2.708,2.708,0,0,1,215.193,21.578Zm0,0" transform="translate(-114.555)" fill="#83d9ff"/><path d="M197.313,29.016a2.426,2.426,0,1,0-2.426,2.43A2.427,2.427,0,0,0,197.313,29.016Zm0,0" transform="translate(-131.94 -18.226)" fill="#5186ff"/><g transform="translate(52.23 59.042)"><path d="M290.282,205.461V237.29a5.853,5.853,0,0,1-2.431-4.756v13.321A5.842,5.842,0,0,1,286.138,250a5.679,5.679,0,0,1-.716.609v-45.15a2.43,2.43,0,0,1,4.861,0Zm0,0" transform="translate(-247.899 -198.23)" fill="#fecbaa"/><path d="M253.144,205.461v45.176a5.856,5.856,0,0,1-2.414-4.046v5.071a5.853,5.853,0,0,1-1.717,4.149,5.561,5.561,0,0,1-.728.619V205.461a2.43,2.43,0,1,1,4.859,0Zm0,0" transform="translate(-222.44 -198.23)" fill="#fecbaa"/><path d="M215.93,205.461v50.955a5.855,5.855,0,0,1-2.43-4.755v-5.806a5.857,5.857,0,0,1-2.43,4.756v-45.15a2.43,2.43,0,1,1,4.859,0Zm0,0" transform="translate(-196.927 -198.23)" fill="#fecbaa"/><path d="M170.953,190.191v11.576l-.114.018a10.659,10.659,0,0,1-4.745-1.107V190.191a2.43,2.43,0,0,1,4.859,0Zm0,0" transform="translate(-166.094 -187.762)" fill="#fecbaa"/></g></g></svg>