<svg xmlns="http://www.w3.org/2000/svg" width="111.544" height="100.005" viewBox="0 0 111.544 100.005"><g transform="translate(0 -3)"><path d="M53,53.539c-27.615,0-50-5.7-50-11.539V55.454C3.015,61.293,25.4,67,53,67s49.987-5.708,50-11.547V42c0,5.843-22.388,11.539-50,11.539" transform="translate(2.77 36.004)" fill="#e4af18"/><path d="M50,42.539c-27.615,0-50-5.7-50-11.539V44.454C.015,50.293,22.4,56,50,56s49.987-5.708,50-11.547V31c0,5.843-22.388,11.539-50,11.539" transform="translate(0 25.849)" fill="#f4bf1a"/><path d="M56,31.539c-27.615,0-50-5.7-50-11.539V33.454C6.015,39.293,28.4,45,56,45s49.987-5.708,50-11.547V20c0,5.843-22.388,11.539-50,11.539" transform="translate(5.539 15.694)" fill="#e4af18"/><path d="M100,12.866c0,5.841-22.388,11.289-50,11.289S0,18.707,0,12.866,22.388,3,50,3s50,4.023,50,9.866" transform="translate(0 0)" fill="#ffd949"/><path d="M50,19.539C22.388,19.539,0,13.843,0,8V21.454C.015,27.293,22.4,33,50,33s49.987-5.708,50-11.547V8c0,5.843-22.388,11.539-50,11.539" transform="translate(0 4.616)" fill="#f4bf1a"/><path d="M4,11.074V24.527q1.754.646,3.846,1.242V12.314Q5.752,11.72,4,11.074" transform="translate(3.693 7.454)" fill="#dca815"/><path d="M46,12.314V25.769q2.094-.594,3.846-1.242V11.074q-1.754.646-3.846,1.24" transform="translate(42.466 7.454)" fill="#dca815"/><path d="M9,12.445V25.9q1.846.384,3.846.727V13.172q-2-.343-3.846-.727" transform="translate(8.309 8.719)" fill="#dca815"/><path d="M41,13.172V26.63q2-.346,3.846-.729V12.445Q43,12.829,41,13.172" transform="translate(37.85 8.719)" fill="#dca815"/><path d="M14,13.269V26.727c1.254.162,2.533.312,3.846.446V13.715c-1.314-.135-2.592-.287-3.846-.446" transform="translate(12.924 9.48)" fill="#dca815"/><path d="M36,13.717V27.175c1.314-.137,2.592-.287,3.846-.446V13.269c-1.254.163-2.533.313-3.846.448" transform="translate(33.234 9.48)" fill="#dca815"/><path d="M19,13.759v13.46q1.9.133,3.846.231V13.988q-1.953-.1-3.846-.229" transform="translate(17.54 9.932)" fill="#dca815"/><path d="M31,13.988V27.45q1.953-.1,3.846-.231V13.759q-1.9.133-3.846.229" transform="translate(28.618 9.932)" fill="#dca815"/><path d="M26.923,14.006c-.644,0-1.285-.006-1.923-.012V27.456c.638.006,1.279.012,1.923.012s1.285-.006,1.923-.012V13.994c-.638.006-1.279.012-1.923.012" transform="translate(23.079 10.149)" fill="#dca815"/><path d="M10,23.074V36.527q1.754.646,3.846,1.242V24.314Q11.752,23.72,10,23.074" transform="translate(9.232 18.532)" fill="#c49214"/><path d="M52,24.314V37.769q2.094-.594,3.846-1.242V23.074q-1.754.646-3.846,1.24" transform="translate(48.005 18.532)" fill="#c49214"/><path d="M15,24.445V37.9q1.846.384,3.846.727V25.172q-2-.343-3.846-.727" transform="translate(13.848 19.797)" fill="#c49214"/><path d="M47,25.172V38.63q2-.346,3.846-.729V24.445Q49,24.829,47,25.172" transform="translate(43.389 19.797)" fill="#c49214"/><path d="M20,25.27V38.728c1.254.162,2.533.312,3.846.446V25.716c-1.314-.137-2.592-.287-3.846-.446" transform="translate(18.463 20.559)" fill="#c49214"/><path d="M42,25.714v13.46c1.314-.137,2.592-.287,3.846-.446V25.27c-1.254.162-2.533.312-3.846.444" transform="translate(38.773 20.559)" fill="#c49214"/><path d="M25,25.759v13.46q1.9.133,3.846.231V25.988q-1.953-.1-3.846-.229" transform="translate(23.079 21.01)" fill="#c49214"/><path d="M37,25.988V39.45q1.953-.1,3.846-.231V25.759q-1.9.133-3.846.229" transform="translate(34.157 21.01)" fill="#c49214"/><path d="M32.923,26.006c-.644,0-1.285-.006-1.923-.012V39.456c.638.006,1.279.012,1.923.012s1.285-.006,1.923-.012V25.994c-.638.006-1.279.012-1.923.012" transform="translate(28.618 21.227)" fill="#c49214"/><path d="M4,34.074V47.527q1.754.646,3.846,1.242V35.314Q5.752,34.72,4,34.074" transform="translate(3.693 28.686)" fill="#dca815"/><path d="M46,35.314V48.769q2.094-.594,3.846-1.242V34.074q-1.754.646-3.846,1.24" transform="translate(42.466 28.686)" fill="#dca815"/><path d="M9,35.445V48.9q1.846.384,3.846.727V36.172q-2-.343-3.846-.727" transform="translate(8.309 29.952)" fill="#dca815"/><path d="M41,36.172V49.63q2-.346,3.846-.729V35.445Q43,35.829,41,36.172" transform="translate(37.85 29.952)" fill="#dca815"/><path d="M14,36.27V49.728c1.254.162,2.533.312,3.846.446V36.716c-1.314-.137-2.592-.287-3.846-.446" transform="translate(12.924 30.714)" fill="#dca815"/><path d="M36,36.714v13.46c1.314-.137,2.592-.287,3.846-.446V36.27c-1.254.162-2.533.312-3.846.444" transform="translate(33.234 30.714)" fill="#dca815"/><path d="M19,36.759v13.46q1.9.133,3.846.231V36.988q-1.953-.1-3.846-.229" transform="translate(17.54 31.165)" fill="#dca815"/><path d="M31,36.988V50.45q1.953-.1,3.846-.231V36.759q-1.9.133-3.846.229" transform="translate(28.618 31.165)" fill="#dca815"/><path d="M26.923,37.006c-.644,0-1.285-.006-1.923-.012V50.456c.638.006,1.279.012,1.923.012s1.285-.006,1.923-.012V36.994c-.638.006-1.279.012-1.923.012" transform="translate(23.079 31.382)" fill="#dca815"/><path d="M7,45.074V58.527q1.754.646,3.846,1.242V46.314Q8.752,45.72,7,45.074" transform="translate(6.462 38.841)" fill="#c49214"/><path d="M49,46.314V59.769q2.094-.594,3.846-1.242V45.074q-1.754.646-3.846,1.24" transform="translate(45.235 38.841)" fill="#c49214"/><path d="M12,46.445V59.9q1.846.384,3.846.727V47.172q-2-.343-3.846-.727" transform="translate(11.078 40.107)" fill="#c49214"/><path d="M44,47.172V60.63q2-.346,3.846-.729V46.445Q46,46.829,44,47.172" transform="translate(40.619 40.107)" fill="#c49214"/><path d="M17,47.27V60.728c1.254.162,2.533.312,3.846.446V47.716c-1.314-.137-2.592-.287-3.846-.446" transform="translate(15.694 40.869)" fill="#c49214"/><path d="M39,47.714v13.46c1.314-.137,2.592-.287,3.846-.446V47.27c-1.254.162-2.533.312-3.846.444" transform="translate(36.004 40.869)" fill="#c49214"/><path d="M22,47.759v13.46q1.9.133,3.846.231V47.988q-1.953-.1-3.846-.229" transform="translate(20.31 41.32)" fill="#c49214"/><path d="M34,47.988V61.45q1.953-.1,3.846-.231V47.759q-1.9.133-3.846.229" transform="translate(31.388 41.32)" fill="#c49214"/><path d="M29.923,48.006c-.644,0-1.285-.006-1.923-.012V61.456c.638.006,1.279.012,1.923.012s1.285-.006,1.923-.012V47.994c-.638.006-1.279.012-1.923.012" transform="translate(25.849 41.537)" fill="#c49214"/><path d="M95.72,39.372c-5.462,4.8-25.1,8.9-48.487,8.9-18.289,0-34.277-2.506-42.994-5.895A3.18,3.18,0,0,0,3,44.676c0,5.843,22.388,11.289,50,11.289s50-5.446,50-11.289c0-2.014-2.664-3.814-7.285-5.3" transform="translate(2.77 33.577)" fill="#fcc62d"/><path d="M61.541,37.877c-25.411,0-46.379-4.837-49.568-10.16C4.514,29.407,0,31.659,0,34.281,0,40.121,22.388,45.57,50,45.57s50-5.448,50-11.289a2.321,2.321,0,0,0-.144-.76c-9.172,2.581-22.93,4.356-38.319,4.356" transform="translate(0 22.818)" fill="#ffd949"/><path d="M92.529,16.549c-5.983,4.654-25.23,8.56-48.066,8.56-14.747,0-28-1.631-37.152-4.039A3.25,3.25,0,0,0,6,23.436c0,5.843,22.388,11.289,50,11.289s50-5.446,50-11.289c0-2.792-5.121-5.168-13.476-6.887" transform="translate(5.539 12.508)" fill="#fcc62d"/></g></svg>