<svg xmlns="http://www.w3.org/2000/svg" width="125.038" height="166.969" viewBox="0 0 125.038 166.969"><g transform="translate(0)"><path d="M120.544,272.1a15.371,15.371,0,0,0-21.737,0L72.167,298.735h-19.3l-26.638-26.64A15.371,15.371,0,0,0,4.495,293.833L36.67,326.007v16.4a4.891,4.891,0,0,0,4.892,4.892H83.478a4.892,4.892,0,0,0,4.892-4.892v-16.4l32.174-32.174A15.389,15.389,0,0,0,120.544,272.1Zm0,0" transform="translate(0 -180.329)" fill="#005ab1"/><path d="M249.736,272.1a15.371,15.371,0,0,0-21.737,0l-26.639,26.639h-9.648V347.3H212.67a4.892,4.892,0,0,0,4.892-4.892v-16.4l32.174-32.174A15.389,15.389,0,0,0,249.736,272.1Zm0,0" transform="translate(-129.192 -180.329)" fill="#00345c"/><path d="M139.682,238.672a25.178,25.178,0,1,0,25.177,25.178A25.206,25.206,0,0,0,139.682,238.672Zm0,0" transform="translate(-77.163 -160.839)" fill="#ffcebf"/><path d="M151.333,27.173a4.894,4.894,0,0,0-3.949-3.33L127.3,20.925l-8.982-18.2a4.892,4.892,0,0,0-8.773,0l-8.981,18.2L80.483,23.843a4.892,4.892,0,0,0-2.711,8.344L92.3,46.352l-3.432,20a4.891,4.891,0,0,0,7.1,5.157l17.963-9.443L131.9,71.51a4.878,4.878,0,0,0,2.276.563h.014a4.9,4.9,0,0,0,4.762-5.986l-3.386-19.735,14.532-14.165A4.892,4.892,0,0,0,151.333,27.173Zm0,0" transform="translate(-51.414)" fill="#ffd12b"/><path d="M216.888,263.85a25.205,25.205,0,0,0-25.177-25.178v50.356A25.206,25.206,0,0,0,216.888,263.85Zm0,0" transform="translate(-129.192 -160.839)" fill="#ffa78f"/><path d="M229.11,27.173a4.894,4.894,0,0,0-3.949-3.33l-20.083-2.918L196.1,2.726A4.893,4.893,0,0,0,191.711,0V62.067l17.963,9.443a4.878,4.878,0,0,0,2.276.563h.014a4.9,4.9,0,0,0,4.762-5.986L213.34,46.352l14.532-14.165A4.892,4.892,0,0,0,229.11,27.173Zm0,0" transform="translate(-129.192)" fill="#ff8e1d"/></g></svg>