<svg xmlns="http://www.w3.org/2000/svg" width="148" height="148" viewBox="0 0 148 148"><path d="M400.186,192.953H378.032L374.109,160h30Zm0,0" transform="translate(-265.968 -113.75)" fill="#002659"/><path d="M60.186,360.953H38.032L34.109,328h30Zm0,0" transform="translate(-24.25 -233.188)" fill="#00429b"/><path d="M230.186,273.953H208.032L204.109,241h30Zm0,0" transform="translate(-145.109 -171.336)" fill="#00429b"/><path d="M256,273.953h11.077L271,241H256Zm0,0" transform="translate(-182 -171.336)" fill="#002659"/><path d="M226.469,376.164H186V325h40.469Zm0,0" transform="translate(-132.234 -231.055)" fill="#fedc35"/><path d="M256,325h20.234v51.164H256Zm0,0" transform="translate(-182 -231.055)" fill="#fdc500"/><path d="M396.469,318.578H356V244h40.469Zm0,0" transform="translate(-253.094 -173.469)" fill="#cf0050"/><path d="M398.578,104.688H361V83.008A13.023,13.023,0,0,1,374.008,70H385.57a13.023,13.023,0,0,1,13.008,13.008Zm0,0" transform="translate(-256.648 -49.766)" fill="#cf0050"/><path d="M56.469,438.016H16V412H56.469Zm0,0" transform="translate(-11.375 -292.906)" fill="#00eccf"/><path d="M58.578,272.688H21v-21.68A13.023,13.023,0,0,1,34.008,238H45.57a13.023,13.023,0,0,1,13.008,13.008Zm0,0" transform="translate(-14.93 -169.203)" fill="#00eccf"/><path d="M228.578,185.688H191v-21.68A13.023,13.023,0,0,1,204.008,151H215.57a13.023,13.023,0,0,1,13.008,13.008Zm0,0" transform="translate(-135.789 -107.352)" fill="#fedc35"/><path d="M261.781,151H256v34.688h18.789v-21.68A13.023,13.023,0,0,0,261.781,151Zm0,0" transform="translate(-182 -107.352)" fill="#fdc500"/><path d="M220.453,109.906a14.453,14.453,0,1,1,14.453-14.453A14.469,14.469,0,0,1,220.453,109.906Zm0,0" transform="translate(-146.453 -57.586)" fill="#ffdfcf"/><path d="M270.453,95.453A14.469,14.469,0,0,0,256,81v28.906A14.469,14.469,0,0,0,270.453,95.453Zm0,0" transform="translate(-182 -57.586)" fill="#ffcebf"/><path d="M50.453,196.906a14.453,14.453,0,1,1,14.453-14.453A14.469,14.469,0,0,1,50.453,196.906Zm0,0" transform="translate(-25.594 -119.438)" fill="#ffdfcf"/><path d="M390.453,28.906a14.453,14.453,0,1,1,14.453-14.453A14.469,14.469,0,0,1,390.453,28.906Zm0,0" transform="translate(-267.313)" fill="#ffcebf"/><path d="M0,482H148v8.672H0Zm0,0" transform="translate(0 -342.672)" fill="#00429b"/><path d="M256,482h74v8.672H256Zm0,0" transform="translate(-182 -342.672)" fill="#002659"/></svg>