<svg xmlns="http://www.w3.org/2000/svg" width="123.134" height="35.086" viewBox="0 0 123.134 35.086"><g transform="translate(-554.548 -244.261)"><path d="M572.091,244.261A17.543,17.543,0,1,0,589.634,261.8,17.543,17.543,0,0,0,572.091,244.261Zm2.385,12.371a1.846,1.846,0,0,1,2.653,0,1.953,1.953,0,0,1,0,2.716,1.846,1.846,0,0,1-2.653,0A1.952,1.952,0,0,1,574.476,256.632Zm-12.711,7.5a1.846,1.846,0,0,1-.449-2.615l7.275-10.039a1.952,1.952,0,0,1,2.676-.459,1.845,1.845,0,0,1,.449,2.615l-7.275,10.04A1.952,1.952,0,0,1,561.765,264.127Zm4.047,4.089a1.952,1.952,0,0,1,0-2.715l4.9-5.018a1.846,1.846,0,0,1,2.653,0,1.953,1.953,0,0,1,0,2.716l-4.9,5.018A1.845,1.845,0,0,1,565.812,268.216Zm16.61-2.913-10.039,7.275a1.845,1.845,0,0,1-2.615-.449,1.953,1.953,0,0,1,.459-2.677l10.039-7.275a1.846,1.846,0,0,1,2.615.449A1.952,1.952,0,0,1,582.422,265.3Z" transform="translate(0)" fill="#ff503a"/><g transform="translate(597.524 251.884)"><path d="M661.923,262.947a2.049,2.049,0,1,0,1.434.6A1.966,1.966,0,0,0,661.923,262.947Z" transform="translate(-659.889 -262.947)" fill="#172333"/><path d="M662.459,276.3a1.642,1.642,0,0,0-1.183.459,1.607,1.607,0,0,0-.482,1.206v10.965a1.688,1.688,0,0,0,2.869,1.183,1.641,1.641,0,0,0,.46-1.183V277.96a1.592,1.592,0,0,0-1.665-1.665Z" transform="translate(-660.425 -270.849)" fill="#172333"/><path d="M693.307,276.769a6.727,6.727,0,0,0-3.237-.776,6.433,6.433,0,0,0-3.128.765,6.211,6.211,0,0,0-.731.468,1.532,1.532,0,0,0-.387-.645,1.767,1.767,0,0,0-2.383,0,1.608,1.608,0,0,0-.481,1.205v10.99a1.689,1.689,0,0,0,2.87,1.183,1.641,1.641,0,0,0,.46-1.183v-6.949a2.316,2.316,0,0,1,.419-1.379,3.1,3.1,0,0,1,1.179-.991,3.744,3.744,0,0,1,1.691-.376,4.113,4.113,0,0,1,1.827.389,2.833,2.833,0,0,1,1.22,1.158,4.132,4.132,0,0,1,.462,2.086v6.062a1.665,1.665,0,1,0,3.329,0v-6.062a7.472,7.472,0,0,0-.827-3.647A5.665,5.665,0,0,0,693.307,276.769Z" transform="translate(-673.548 -270.671)" fill="#172333"/><path d="M732.327,281.088h-.838a1.256,1.256,0,0,1-1.014-.515,2.114,2.114,0,0,1-.45-1.393V273.5h1.687a1.585,1.585,0,0,0,1.114-.4,1.379,1.379,0,0,0,.452-1.039,1.418,1.418,0,0,0-.452-1.089,1.585,1.585,0,0,0-1.114-.4h-1.687v-3.14a1.64,1.64,0,1,0-3.28,0v3.14h-.725a1.586,1.586,0,0,0-1.115.4,1.418,1.418,0,0,0-.451,1.088,1.38,1.38,0,0,0,.451,1.039,1.585,1.585,0,0,0,1.115.4h.725v5.679a5.612,5.612,0,0,0,.613,2.628,4.832,4.832,0,0,0,1.695,1.868,4.457,4.457,0,0,0,2.437.692h.443a1.966,1.966,0,0,0,1.312-.442,1.527,1.527,0,0,0,.55-1.2,1.684,1.684,0,0,0-.412-1.159A1.386,1.386,0,0,0,732.327,281.088Z" transform="translate(-698.113 -264.628)" fill="#172333"/><path d="M766.871,276.481a4.384,4.384,0,0,0-2.43-.548,5.881,5.881,0,0,0-2.91.742,5.948,5.948,0,0,0-.865.587,1.447,1.447,0,0,0-.385-.754,1.65,1.65,0,0,0-1.212-.427,1.52,1.52,0,0,0-1.64,1.64v11.014a1.617,1.617,0,0,0,.445,1.218,1.659,1.659,0,0,0,1.195.422,1.618,1.618,0,0,0,1.218-.446,1.656,1.656,0,0,0,.422-1.194v-7.2a2.148,2.148,0,0,1,.61-1.587,3.452,3.452,0,0,1,1.778-.9,6.537,6.537,0,0,1,2.657.048,1.873,1.873,0,0,0,.756.028,1.389,1.389,0,0,0,.677-.329,1.33,1.33,0,0,0,.408-.734A1.393,1.393,0,0,0,766.871,276.481Z" transform="translate(-717.635 -270.635)" fill="#172333"/><path d="M800.753,276.481a4.385,4.385,0,0,0-2.43-.548,5.879,5.879,0,0,0-2.91.742,5.945,5.945,0,0,0-.865.587,1.446,1.446,0,0,0-.385-.754,1.65,1.65,0,0,0-1.212-.427,1.52,1.52,0,0,0-1.64,1.64v11.014a1.617,1.617,0,0,0,.445,1.218,1.658,1.658,0,0,0,1.195.422,1.618,1.618,0,0,0,1.218-.446,1.656,1.656,0,0,0,.422-1.194v-7.2a2.148,2.148,0,0,1,.611-1.587,3.45,3.45,0,0,1,1.778-.9,6.536,6.536,0,0,1,2.657.048,1.874,1.874,0,0,0,.756.028,1.385,1.385,0,0,0,.677-.329,1.325,1.325,0,0,0,.408-.734A1.392,1.392,0,0,0,800.753,276.481Z" transform="translate(-737.695 -270.635)" fill="#172333"/><path d="M834.554,279.55A6.775,6.775,0,0,0,832,276.983a7.893,7.893,0,0,0-7.428,0,6.768,6.768,0,0,0-2.554,2.567,8.042,8.042,0,0,0,0,7.5,6.765,6.765,0,0,0,2.554,2.567,7.944,7.944,0,0,0,7.453,0,6.687,6.687,0,0,0,2.543-2.57,8.086,8.086,0,0,0-.013-7.5Zm-6.256,7.962a3.936,3.936,0,0,1-2.057-.533,3.838,3.838,0,0,1-1.405-1.472,4.513,4.513,0,0,1-.516-2.194,4.585,4.585,0,0,1,.517-2.209,3.812,3.812,0,0,1,1.4-1.483,4.231,4.231,0,0,1,4.114,0,3.734,3.734,0,0,1,1.39,1.479,4.681,4.681,0,0,1,.507,2.212,4.6,4.6,0,0,1-.506,2.2,3.752,3.752,0,0,1-1.39,1.469A3.94,3.94,0,0,1,828.3,287.512Z" transform="translate(-755.324 -270.707)" fill="#172333"/></g></g></svg>